<svg width="32" height="32" viewBox="0 0 32 32" fill="none" xmlns="http://www.w3.org/2000/svg">
<g clip-path="url(#clip0_120_2)">
<circle cx="16" cy="16" r="16" fill="#5865F2"/>
<path d="M22.2601 10.176C21.0866 9.62533 19.8404 9.224 18.5396 9C18.3759 9.28933 18.194 9.68133 18.0666 9.98933C16.6831 9.78399 15.3095 9.78399 13.945 9.98933C13.8177 9.68133 13.6267 9.28933 13.472 9C12.1622 9.224 10.9159 9.62533 9.7507 10.176C7.39474 13.7413 6.758 17.2226 7.07637 20.6573C8.64094 21.8239 10.151 22.5333 11.6346 23C11.9984 22.496 12.3259 21.9546 12.6079 21.3853C12.0712 21.18 11.5618 20.928 11.0706 20.6293C11.198 20.536 11.3253 20.4333 11.4436 20.3307C14.409 21.7213 17.6209 21.7213 20.5499 20.3307C20.6773 20.4333 20.7955 20.536 20.9229 20.6293C20.4317 20.928 19.9223 21.18 19.3856 21.3853C19.6676 21.9546 19.9951 22.496 20.3589 23C21.8416 22.5333 23.3607 21.8239 24.9171 20.6573C25.3082 16.6813 24.2976 13.228 22.2601 10.176ZM13.0172 18.5386C12.1258 18.5386 11.3981 17.708 11.3981 16.6907C11.3981 15.6733 12.1076 14.8426 13.0172 14.8426C13.9178 14.8426 14.6545 15.6733 14.6363 16.6907C14.6363 17.708 13.9178 18.5386 13.0172 18.5386ZM18.9945 18.5386C18.103 18.5386 17.3744 17.708 17.3744 16.6907C17.3744 15.6733 18.0848 14.8426 18.9945 14.8426C19.895 14.8426 20.6318 15.6733 20.6136 16.6907C20.6136 17.708 19.9041 18.5386 18.9945 18.5386Z" fill="white"/>
</g>
<defs>
<clipPath id="clip0_120_2">
<rect width="32" height="32" fill="white"/>
</clipPath>
</defs>
</svg>
